<svg xmlns="http://www.w3.org/2000/svg" width="23" height="23" viewBox="0 0 23 23">
  <path id="bxs-dashboard" d="M5.722,16.722h7.333A1.222,1.222,0,0,0,14.278,15.5V5.722A1.222,1.222,0,0,0,13.056,4.5H5.722A1.222,1.222,0,0,0,4.5,5.722V15.5A1.222,1.222,0,0,0,5.722,16.722ZM4.5,25.278A1.222,1.222,0,0,0,5.722,26.5h7.333a1.222,1.222,0,0,0,1.222-1.222V20.389a1.222,1.222,0,0,0-1.222-1.222H5.722A1.222,1.222,0,0,0,4.5,20.389Zm12.222,0A1.222,1.222,0,0,0,17.944,26.5h7.333A1.222,1.222,0,0,0,26.5,25.278V16.722A1.222,1.222,0,0,0,25.278,15.5H17.944a1.222,1.222,0,0,0-1.222,1.222Zm1.222-12.222h7.333A1.222,1.222,0,0,0,26.5,11.833V5.722A1.222,1.222,0,0,0,25.278,4.5H17.944a1.222,1.222,0,0,0-1.222,1.222v6.111A1.222,1.222,0,0,0,17.944,13.056Z" transform="translate(-4 -4)" fill="none" stroke="#000" stroke-width="1"/>
</svg>
