<svg xmlns="http://www.w3.org/2000/svg" width="25.618" height="26" viewBox="0 0 25.618 26">
  <g id="Group_11" data-name="Group 11" transform="translate(-112.333 -597.333)">
    <rect id="Rectangle_5" data-name="Rectangle 5" width="25.618" height="26" transform="translate(112.333 597.333)" fill="none"/>
    <path id="facebook" d="M18.109,9.055A9.055,9.055,0,1,0,7.64,18V11.672h-2.3V9.054h2.3V7.06a3.2,3.2,0,0,1,3.42-3.523,13.938,13.938,0,0,1,2.027.177V5.942H11.946A1.309,1.309,0,0,0,10.47,7.356v1.7h2.511l-.4,2.618H10.47V18a9.057,9.057,0,0,0,7.64-8.944Z" transform="translate(116.087 601.333)" fill="#fff"/>
  </g>
</svg>
