<svg xmlns="http://www.w3.org/2000/svg" width="25.618" height="26" viewBox="0 0 25.618 26">
  <g id="Group_11" data-name="Group 11" transform="translate(-112.333 -597.333)">
    <rect id="Rectangle_5" data-name="Rectangle 5" width="25.618" height="26" transform="translate(112.333 597.333)" fill="none"/>
    <g id="Google__G__Logo" transform="translate(116.66 601.667)">
      <path id="Path_7" data-name="Path 7" d="M-6.456,50.878a10.041,10.041,0,0,0-.137-1.639h-8.161V52.5h4.673a4.023,4.023,0,0,1-1.733,2.586v2.167h2.788A8.474,8.474,0,0,0-6.456,50.878Z" transform="translate(23.421 -42.017)" fill="#4285f4"/>
      <path id="Path_8" data-name="Path 8" d="M-17.729,60.542A8.256,8.256,0,0,0-12,58.44l-2.788-2.167a5.228,5.228,0,0,1-2.939.838,5.176,5.176,0,0,1-4.861-3.582h-2.874v2.232A8.654,8.654,0,0,0-17.729,60.542Z" transform="translate(26.396 -43.208)" fill="#34a853"/>
      <path id="Path_9" data-name="Path 9" d="M-22.948,51.4a5.029,5.029,0,0,1-.274-1.654,5.225,5.225,0,0,1,.274-1.654V45.859h-2.874a8.566,8.566,0,0,0-.932,3.886,8.566,8.566,0,0,0,.932,3.886Z" transform="translate(26.754 -41.078)" fill="#fbbc05"/>
      <path id="Path_10" data-name="Path 10" d="M-17.729,42.67a4.7,4.7,0,0,1,3.322,1.3l2.47-2.47a8.286,8.286,0,0,0-5.792-2.261,8.654,8.654,0,0,0-7.735,4.781l2.874,2.232A5.176,5.176,0,0,1-17.729,42.67Z" transform="translate(26.396 -39.239)" fill="#ea4335"/>
    </g>
  </g>
</svg>
