<svg id="lock" xmlns="http://www.w3.org/2000/svg" width="13.714" height="16" viewBox="0 0 13.714 16">
  <path id="Path_13" data-name="Path 13" d="M15.929,9.107a2.286,2.286,0,0,1,2.286,2.286v4.571a2.286,2.286,0,0,1-2.286,2.286H6.786A2.286,2.286,0,0,1,4.5,15.964V11.393A2.286,2.286,0,0,1,6.786,9.107V6.821a4.571,4.571,0,1,1,9.143,0ZM11.357,3.774A3.048,3.048,0,0,1,14.4,6.821V9.107H8.31V6.821a3.048,3.048,0,0,1,3.048-3.048Zm4.571,6.857H6.786a.762.762,0,0,0-.762.762v4.571a.762.762,0,0,0,.762.762h9.143a.762.762,0,0,0,.762-.762V11.393A.762.762,0,0,0,15.929,10.631Z" transform="translate(-4.5 -2.25)" fill="#bf0a76" fill-rule="evenodd"/>
</svg>
