<svg id="login-line" xmlns="http://www.w3.org/2000/svg" width="17.162" height="17.797" viewBox="0 0 17.162 17.797">
  <path id="Path_19" data-name="Path 19" d="M21.441,4H11.271A1.271,1.271,0,0,0,10,5.271H21.441V20.526H11.271V14.3H10v6.229A1.271,1.271,0,0,0,11.271,21.8h10.17a1.271,1.271,0,0,0,1.271-1.271V5.271A1.271,1.271,0,0,0,21.441,4Z" transform="translate(-5.551 -4)" fill="#fff"/>
  <path id="Path_20" data-name="Path 20" d="M10.7,14.667a.636.636,0,1,0,.9.9l3.68-3.68L11.606,8.2a.636.636,0,0,0-.9.9l2.142,2.1H3.636a.636.636,0,0,0,0,1.271h9.216Z" transform="translate(-3 -5.476)" fill="#fff"/>
</svg>
