<svg xmlns="http://www.w3.org/2000/svg" width="18" height="18" viewBox="0 0 18 18">
  <g id="profile" transform="translate(-1.5 -1.5)">
    <path id="Path_15" data-name="Path 15" d="M18.545,10.773A3.273,3.273,0,1,1,15.273,7.5,3.273,3.273,0,0,1,18.545,10.773Zm-1.636,0a1.636,1.636,0,1,1-1.636-1.636A1.636,1.636,0,0,1,16.909,10.773Z" transform="translate(-4.773 -2.727)" fill="#fff" fill-rule="evenodd"/>
    <path id="Path_16" data-name="Path 16" d="M10.5,1.5a9,9,0,1,0,9,9A9,9,0,0,0,10.5,1.5Zm-7.364,9A7.334,7.334,0,0,0,4.7,15.034a7.365,7.365,0,0,1,11.659-.069A7.364,7.364,0,1,0,3.136,10.5ZM10.5,17.864a7.333,7.333,0,0,1-4.641-1.646,5.729,5.729,0,0,1,9.349-.056A7.334,7.334,0,0,1,10.5,17.864Z" fill="#fff" fill-rule="evenodd"/>
  </g>
</svg>
