<svg xmlns="http://www.w3.org/2000/svg" width="20.981" height="21" viewBox="0 0 20.981 21">
  <path id="settings-solid" d="M22.7,11.48l-2.233-.667a7.766,7.766,0,0,0-.633-1.553L20.93,7.213a.407.407,0,0,0-.073-.48l-1.593-1.6a.407.407,0,0,0-.48-.073L16.75,6.147a7.747,7.747,0,0,0-1.573-.667L14.51,3.273A.407.407,0,0,0,14.117,3H11.863a.407.407,0,0,0-.387.287l-.667,2.2a7.753,7.753,0,0,0-1.587.667l-2-1.08a.407.407,0,0,0-.48.073l-1.62,1.58a.407.407,0,0,0-.073.48l1.08,2a7.753,7.753,0,0,0-.667,1.58l-2.207.667a.407.407,0,0,0-.287.387v2.253a.407.407,0,0,0,.287.387l2.22.667A7.747,7.747,0,0,0,6.143,16.7L5.05,18.793a.407.407,0,0,0,.073.48l1.593,1.593a.407.407,0,0,0,.48.073l2.06-1.1a7.767,7.767,0,0,0,1.533.627l.667,2.247a.407.407,0,0,0,.387.287H14.1a.407.407,0,0,0,.387-.287l.667-2.253a7.753,7.753,0,0,0,1.52-.627l2.073,1.107a.407.407,0,0,0,.48-.073l1.593-1.593a.407.407,0,0,0,.073-.48l-1.107-2.067a7.753,7.753,0,0,0,.633-1.527l2.247-.667a.407.407,0,0,0,.287-.387V11.873a.407.407,0,0,0-.247-.393ZM12.99,16.667A3.667,3.667,0,1,1,16.657,13a3.667,3.667,0,0,1-3.667,3.667Z" transform="translate(-2.47 -2.5)" fill="none" stroke="gray" stroke-width="1"/>
</svg>
