<svg xmlns="http://www.w3.org/2000/svg" width="22.979" height="23" viewBox="0 0 22.979 23">
  <path id="settings-solid" d="M24.677,12.328l-2.457-.733a8.543,8.543,0,0,0-.7-1.709l1.2-2.251a.447.447,0,0,0-.081-.528l-1.753-1.76a.447.447,0,0,0-.528-.081l-2.237,1.2A8.521,8.521,0,0,0,16.4,5.728L15.664,3.3a.447.447,0,0,0-.433-.3H12.753a.447.447,0,0,0-.425.315l-.733,2.42a8.528,8.528,0,0,0-1.745.733l-2.2-1.188a.447.447,0,0,0-.528.081L5.339,7.1a.447.447,0,0,0-.081.528l1.188,2.2a8.529,8.529,0,0,0-.733,1.738L3.285,12.3a.447.447,0,0,0-.315.425V15.2a.447.447,0,0,0,.315.425l2.442.733a8.521,8.521,0,0,0,.733,1.709l-1.2,2.3a.447.447,0,0,0,.081.528l1.753,1.753a.447.447,0,0,0,.528.081l2.266-1.21a8.543,8.543,0,0,0,1.687.689l.733,2.471a.447.447,0,0,0,.425.315h2.479a.447.447,0,0,0,.425-.315l.733-2.479a8.529,8.529,0,0,0,1.672-.689l2.281,1.217a.447.447,0,0,0,.528-.081L22.6,20.9a.447.447,0,0,0,.081-.528L21.465,18.1a8.528,8.528,0,0,0,.7-1.679l2.471-.733a.447.447,0,0,0,.315-.425v-2.5a.447.447,0,0,0-.271-.433ZM13.992,18.033A4.033,4.033,0,1,1,18.025,14a4.033,4.033,0,0,1-4.033,4.033Z" transform="translate(-2.47 -2.5)" fill="none" stroke="#000" stroke-width="1"/>
</svg>
