<svg xmlns="http://www.w3.org/2000/svg" width="22" height="19.355" viewBox="0 0 22 19.355">
  <g id="arrow-down-circle" transform="translate(-6.625 -9.125)">
    <path id="Path_28" data-name="Path 28" d="M10.443,25.26a1.088,1.088,0,0,0,1.541,0l5.757-5.76L23.5,25.26a1.089,1.089,0,1,0,1.541-1.541l-6.528-6.528a1.088,1.088,0,0,0-1.541,0L10.443,23.72a1.088,1.088,0,0,0,0,1.541Z" transform="translate(-0.115 -7.747)" fill-rule="evenodd"/>
    <path id="Path_29" data-name="Path 29" d="M17.963,23.181a1.088,1.088,0,0,0,1.088-1.088V11.213a1.088,1.088,0,1,0-2.176,0v10.88A1.088,1.088,0,0,0,17.963,23.181Z" transform="translate(-0.337 1.177)" fill-rule="evenodd"/>
    <path id="Union_1" data-name="Union 1" d="M11.967,2.176H1.088A1.088,1.088,0,0,1,1.088,0H20.912a1.088,1.088,0,1,1,0,2.176Z" transform="translate(6.625 26.304)"/>
  </g>
</svg>
